# xmcd
#
# Track frame offsets:
#	150
#	11031
#	35399
#	76269
#	110004
#	134041
#
# Disc length: 3669 seconds
#
# Revision: 1
# Processed by: cddbd v1.5.2PL0 Copyright (c) Steve Scherf et al.
# Submitted via: audiograbber 1.83.01
#
DISCID=4a0e5306
DTITLE=Grateful Dead - 69-12-19 Fillmore West, San Francisco CA
DYEAR=1900
DGENRE=
TTITLE0=Cryptical Envelopment
TTITLE1=Drums
TTITLE2=The Other One
TTITLE3=Cryptical Envelopment
TTITLE4=Uncle John's Band
TTITLE5=Turn On Your Lovelight
EXTD=
EXTT0=
EXTT1=
EXTT2=
EXTT3=
EXTT4=
EXTT5=
PLAYORDER=
